<?xml version="1.0" encoding="utf-8"?>
<!-- Generator: Adobe Illustrator 27.6.1, SVG Export Plug-In . SVG Version: 6.00 Build 0)  -->
<svg version="1.1" id="Livello_1" xmlns="http://www.w3.org/2000/svg" xmlns:xlink="http://www.w3.org/1999/xlink" x="0px" y="0px"
	 viewBox="0 0 200 34.4" style="enable-background:new 0 0 200 34.4;" xml:space="preserve">
<style type="text/css">
	.st0{fill:#FFFFFF;}
</style>
<g>
	<g>
		<g>
			<path class="st0" d="M47.9,25.5L43.9,9h4l1.3,6.8c0.4,2,0.7,4.1,1,5.8h0c0.3-1.8,0.7-3.8,1.1-5.8L52.7,9h4l1.3,7
				c0.4,1.9,0.6,3.7,0.9,5.5h0c0.3-1.8,0.6-3.8,1-5.8L61.2,9H65l-4.3,16.5h-4l-1.4-7.1c-0.3-1.6-0.6-3.2-0.8-5.1h0
				c-0.3,1.9-0.6,3.4-1,5.1L52,25.5H47.9L47.9,25.5z"/>
			<path class="st0" d="M83.4,17c0,5.5-3.3,8.7-8.1,8.7c-4.9,0-7.8-3.7-7.8-8.4c0-4.9,3.2-8.7,8-8.7C80.6,8.7,83.4,12.4,83.4,17z
				 M71.4,17.2c0,3.3,1.5,5.5,4,5.5c2.5,0,4-2.4,4-5.6c0-3-1.4-5.5-4-5.5C72.9,11.6,71.4,14,71.4,17.2z"/>
			<path class="st0" d="M89.8,25.5L85.9,9h4l1.3,6.8c0.4,2,0.7,4.1,1,5.8h0c0.3-1.8,0.7-3.8,1.1-5.8L94.6,9h4l1.3,7
				c0.4,1.9,0.6,3.7,0.9,5.5h0c0.3-1.8,0.6-3.8,1-5.8l1.3-6.7h3.8l-4.3,16.5h-4l-1.4-7.1c-0.3-1.6-0.6-3.2-0.8-5.1h0
				c-0.3,1.9-0.6,3.4-1,5.1l-1.6,7.1H89.8z"/>
			<path class="st0" d="M116.8,9.2c1.4-0.2,3.2-0.4,5-0.4c3.2,0,5.2,0.6,6.8,1.8c1.7,1.3,2.8,3.3,2.8,6.2c0,3.2-1.2,5.3-2.7,6.7
				c-1.8,1.4-4.4,2.1-7.7,2.1c-1.9,0-3.3-0.1-4.3-0.3V9.2L116.8,9.2z M120.6,22.6c0.3,0.1,0.9,0.1,1.3,0.1c3.4,0,5.6-1.8,5.6-5.8
				c0-3.4-2-5.3-5.3-5.3c-0.8,0-1.4,0.1-1.7,0.1V22.6L120.6,22.6z"/>
			<path class="st0" d="M145.2,18.5h-6.1v3.9h6.8v3.1h-10.5V9h10.2V12h-6.4v3.4h6.1L145.2,18.5L145.2,18.5z"/>
			<path class="st0" d="M149.9,9h3.7v13.4h6.6v3.1h-10.3V9z"/>
			<path class="st0" d="M167.7,9v16.5H164V9H167.7L167.7,9z"/>
			<path class="st0" d="M176.3,25.5L171,9h4.1l2,7c0.6,2,1.1,3.9,1.5,5.9h0.1c0.4-2,0.9-3.9,1.5-5.8l2.1-7.1h4l-5.6,16.5H176.3
				L176.3,25.5z"/>
			<path class="st0" d="M199.3,18.5h-6.1v3.9h6.8v3.1h-10.5V9h10.2V12h-6.4v3.4h6.1V18.5L199.3,18.5z"/>
		</g>
	</g>
	<g id="_x31_7RerS_00000145044609004666798220000016699382893486315138_">
		<g>
			<path class="st0" d="M14.7,34.4c-0.6,0-1.1-0.1-1.6-0.4c-0.2-0.1-0.3-0.3-0.3-0.5c0.1-0.9,0.2-1.7,0.1-2.6
				c-0.1-0.5,0-0.7,0.6-0.6c0.3,0,0.7,0,1,0c1.2,0,1.3,0,1.7-1.1c0.3-0.9,0.5-1.9,0.4-3c-0.2,0.4-0.2,0.8-0.2,1.2
				c0,0.6-0.2,1.2-0.4,1.7c-0.1,0.3-0.3,0.6-0.6,0.6c-0.3,0-0.3-0.4-0.4-0.6c-0.5-1.1-0.4-2.3-0.5-3.5c0-0.4,0.1-0.6,0.5-0.6
				c1.7-0.3,3.4-0.7,5.1-1.1c1.9-0.5,3.9-0.8,5.6-2c0.2-0.1,0.4-0.2,0.4-0.4c-0.1-0.2-0.3-0.1-0.5-0.1c-1.2,0-2.5,0-3.7,0
				c-0.3,0-0.6,0-0.6,0.5c0,0.4-0.3,0.6-0.6,0.8c-1,0.5-2.1,0.7-3.2,0.8c0,0-0.1,0-0.2-0.1c1.1-0.5,2.2-0.8,3.2-1.5
				c-0.3-0.4-0.7-0.5-1.1-0.5c-4,0-8.1,0-12.1,0c-0.6,0-0.9-0.1-0.9-0.7c-0.1-1.5-0.5-3.1-0.7-4.6c-0.1-0.6-0.3-1.2-0.4-1.8
				c-0.3-1.5-0.6-3-0.5-4.6c-0.3,0.4-0.4,1.4-0.3,2.4c0.3,1.7,0.5,3.4,0.8,5.1c0.3,1.3,0.5,2.6,0.7,4c0,0.3-0.1,0.4-0.3,0.4
				c-0.1,0-0.2,0-0.4,0c-0.6,0-1.2-0.1-1.7,0.5c-0.6,0.7-1.2,1.3-1.5,2.2c-0.4,1.3-0.2,2.6-0.1,3.9c0,0.2,0.1,0.4-0.1,0.5
				c-0.2,0.1-0.3-0.1-0.4-0.2c-1.3-1.1-1.6-2.4-1.5-4c0.1-2.5,0.4-4.9,0.7-7.4c0.3-2.3,0.8-4.6,0.6-7c0-0.8,0.2-1.5,0.4-2.2
				c0.3-0.7,0.8-1.2,1.5-1.6C4.7,5.3,6,4.5,7.4,3.7c0.1-0.1,0.3-0.2,0.4-0.1c0.2,0.1,0,0.3,0,0.4C7.5,5.4,7.6,6.8,7.6,8.2
				c0,0.4,0.1,0.4,0.5,0.4c0.5,0,0.9,0,1.4,0c0.4,0,0.5,0.2,0.3,0.5c0,0.1-0.1,0.1-0.1,0.2c-0.2,0.4-0.8,0.7-0.7,1.2
				c0.1,0.4,0.5,0.7,0.8,1c0.9,1,1.8,2,2.7,3c0.1,0.1,0.2,0.2,0.3,0.1c0.2-0.1,0.1-0.3,0-0.5c-0.4-0.4-0.7-0.8-1.1-1.2
				c-0.6-0.7-1.3-1.4-1.9-2.2c-0.3-0.3-0.3-0.5,0-0.8c0.4-0.5,0.7-1.1,1.1-1.6c-0.8-0.2-1.6-0.2-2.4-0.3C8.2,8.1,8,8.1,8,7.7
				c0.1-1.5,0.2-2.9,0.5-4.3c0-0.2,0.1-0.3,0.3-0.5c0.7-0.4,1.4-0.9,2.1-1.4c0.5-0.3,0.8-0.7,0.6-1.3c0.3,0,0.3,0.3,0.4,0.4
				c0.2,0.9,0.6,1.7,1,2.5c0.1,0.3,0.3,0.6,0.7,0.6c0.3,0,0.3,0.4,0.2,0.6c-0.1,0.5,0,1,0.2,1.5c0.3,0.7-0.3,0.8-0.6,0.9
				c-0.4,0.2-0.7,0-0.9-0.4c-0.3-0.8-0.4-1.6-0.6-2.4c0,0,0-0.1,0-0.2c0.6-0.8-0.2-1.3-0.3-2C11,3,11.2,3.9,11.4,4.9
				c0.2,1.2,0.6,2.3,1.2,3.3c0.5,1,1.1,2,1.9,2.8c0.1,0.1,0.2,0.3,0.4,0.3C15,11.2,15,11,15,10.8c0-1.1,0-2.2,0-3.3
				c0-0.2-0.1-0.5,0.1-0.6c0.3,0,0.5,0.3,0.5,0.6c0,0.6,0,1.2,0,1.8c0,0.3,0,0.6,0,0.8c2.1-1,3.1-2.7,3.6-4.8
				c0.2-1.1,0.6-2.3-0.2-3.6c0,0.9-0.5,1.4-0.4,2.3c0.1,0.9-0.1,1.9-0.6,2.7C17.9,7,17.7,7.1,17.4,7c-0.3-0.2-0.9-0.2-0.8-0.7
				c0.1-0.7,0.2-1.3,0.1-2c0-0.2,0.1-0.3,0.2-0.4c0.9-0.3,1-1.1,1.3-1.8c0.3-0.6,0.5-1.3,0.8-2.1c0,1.3,1,1.7,1.8,2.2
				c1,0.6,1.5,1.3,1.6,2.5c0,0.7,0.1,1.5,0.1,2.2c0,0.2,0,0.5,0.4,0.5c0.3,0,0.2-0.3,0.2-0.5C23.1,5.9,23,4.9,22.9,4
				c0-0.4,0-0.5,0.5-0.3c1.5,0.9,3,1.7,4.5,2.5c0.8,0.5,1.2,1.2,1.3,2.1c0.1,1,0.4,1.7,1.1,2.4c1.1,1.1,1.9,2.5,2.5,3.9
				c0.5,1.2,0.9,2.5,1,3.8c0,0.3,0.2,0.5,0.5,0.6c0.6,0.3,0.9,1.4,0.6,2c-0.1,0.2-0.3,0.2-0.5,0.2c-1,0-2.1,0-3.1,0
				c-0.5,0-0.7,0.1-0.6,0.7c0.1,0.8,0.1,1.6,0.2,2.5c0.1,1.7-0.6,3-1.9,4c-1.6,1.4-3.5,2.3-5.4,3.2c-1.2,0.6-2.5,1-3.8,1.5
				c-0.4,0.2-0.8,0.3-1.2,0.4c-0.2,0-0.4,0.1-0.6,0.1L17.3,34C16.4,34.3,15.6,34.4,14.7,34.4z M15.5,19.8c0,0,0-0.1,0-0.1
				c1-0.1,2-0.2,3-0.2c4.4,0,8.8-0.4,13.2-0.3c1.3,0,1.3,0,1.2-1.3c0,0,0-0.1,0-0.1c-0.6-2.2-1.4-4.2-2.8-6c-1.6-2-3.7-3.3-6.3-3.7
				c-1-0.1-2.1-0.1-3.1,0.1c-1.2,0.3-2.3,0.9-3.4,1.6c-1.6,1.2-2.8,2.7-3.6,4.5c-0.7,1.5-1.3,3.2-1.4,4.9c0,0.2,0,0.6-0.4,0.5
				c-0.5,0-0.6,0.2-0.6,0.6c0,0.5,0.4,0.3,0.7,0.3c5,0,10,0,15.1,0c2.2,0,4.3,0,6.5,0c0.2,0,0.5,0.1,0.5-0.3c0-0.3-0.2-0.6-0.6-0.6
				c-0.1,0-0.1,0-0.2,0c-4.9,0-9.9,0-14.8,0C17.5,19.8,16.5,19.8,15.5,19.8z"/>
			<path class="st0" d="M14.4,22.5c-0.1,0.7-0.3,1.3-0.3,2c-0.1,1.1,0,2.3,0,3.4c0,0.5,0.2,1,0.4,1.5c0.1,0.3,0,0.5-0.3,0.5
				c-1.4,0-1.4,0.4-1.4-1.3c-0.1-1.3,0-2.6,0.4-3.8C13.3,23.9,13.7,23.1,14.4,22.5z"/>
			<path class="st0" d="M15.3,4.1c0.9,0,1.1,0.3,1,1.2c-0.1,1-0.4,1.3-1.3,1.2c-0.4,0-0.6-0.3-0.7-0.6c0-0.2,0-0.5-0.1-0.7
				C14.3,4.2,14.4,4.1,15.3,4.1z"/>
		</g>
	</g>
</g>
</svg>
